<?xml version="1.0" encoding="utf-8"?>
<!-- Generator: Adobe Illustrator 24.1.2, SVG Export Plug-In . SVG Version: 6.00 Build 0)  -->
<svg version="1.1"
	 id="svg3381" xmlns:cc="http://creativecommons.org/ns#" xmlns:dc="http://purl.org/dc/elements/1.1/" xmlns:inkscape="http://www.inkscape.org/namespaces/inkscape" xmlns:rdf="http://www.w3.org/1999/02/22-rdf-syntax-ns#" xmlns:sodipodi="http://sodipodi.sourceforge.net/DTD/sodipodi-0.dtd" xmlns:svg="http://www.w3.org/2000/svg"
	 xmlns="http://www.w3.org/2000/svg" xmlns:xlink="http://www.w3.org/1999/xlink" x="0px" y="0px" viewBox="0 0 256 256"
	 style="enable-background:new 0 0 256 256;" xml:space="preserve">
<style type="text/css">
	.st0{fill:#243746;}
	.st1{fill:#E40E20;}
</style>
<sodipodi:namedview  bordercolor="#666666" borderopacity="1.0" id="base" inkscape:current-layer="layer1" inkscape:cx="136.7152" inkscape:cy="111.7671" inkscape:document-units="px" inkscape:grid-bbox="true" inkscape:pageopacity="0.0" inkscape:pageshadow="2" inkscape:window-height="977" inkscape:window-maximized="1" inkscape:window-width="1500" inkscape:window-x="-8" inkscape:window-y="-8" inkscape:zoom="1.375" pagecolor="#ffffff" showgrid="true">
	</sodipodi:namedview>
<g>
	<g>
		<path class="st0" d="M61.9,151.5l-1.1-8l-3.2,7h-1.3l-3.5-7l-1.1,8h-1.6l1.3-11.2h1.6l3.7,8l3.7-8h1.6l1.3,11.2H61.9z"/>
		<path class="st0" d="M73.1,144.1v7.5h-1.6v-1.1c-0.5,0.8-1.6,1.3-2.7,1.3c-2.1,0-3.7-1.6-3.7-4s1.6-4,3.7-4c1.1,0,2.1,0.5,2.7,1.3
			v-1.1H73.1z M71.5,147.8c0-1.6-1.3-2.4-2.4-2.4c-1.3,0-2.4,1.1-2.4,2.4s1.1,2.4,2.4,2.4C70.5,150.2,71.5,149.4,71.5,147.8z
			 M70.2,142.7h-1.3l1.6-2.7h1.9L70.2,142.7z"/>
		<path class="st0" d="M75,149.1h1.6c0,0.5,0.5,1.1,1.3,1.1s1.3-0.5,1.3-1.1s-0.5-0.8-1.1-0.8l-1.1-0.3c-1.3-0.3-2.1-1.1-2.1-2.1
			c0-1.3,1.1-2.1,2.7-2.1c1.3,0,2.7,0.8,2.7,2.4h-1.6c0-0.5-0.5-0.8-1.1-0.8c-0.5,0-1.1,0.5-1.1,0.8c0,0.5,0.5,0.8,0.8,0.8l1.1,0.3
			c1.6,0.5,1.9,1.3,1.9,2.1c0,1.3-1.3,2.4-2.9,2.4C76.4,151.8,75,150.7,75,149.1z"/>
		<path class="st0" d="M86.3,147.8c0-2.4,1.9-4,4-4s4,1.6,4,4s-1.9,4-4,4S86.3,150.2,86.3,147.8z M92.7,147.8c0-1.3-1.1-2.4-2.4-2.4
			c-1.3,0-2.4,1.1-2.4,2.4c0,1.6,1.1,2.4,2.4,2.4C91.6,150.2,92.7,149.1,92.7,147.8z"/>
		<path class="st0" d="M104.2,147.8c0,2.4-1.6,4-3.7,4c-1.1,0-2.1-0.5-2.7-1.3v4.8h-1.6v-11.2h1.6v1.1c0.5-0.8,1.6-1.3,2.7-1.3
			C102.6,143.8,104.2,145.4,104.2,147.8z M102.6,147.8c0-1.3-1.1-2.4-2.4-2.4c-1.3,0-2.4,1.1-2.4,2.4c0,1.6,1.3,2.4,2.4,2.4
			C101.5,150.2,102.6,149.1,102.6,147.8z"/>
		<path class="st0" d="M105.8,147.8c0-2.4,1.9-4,4-4c1.3,0,2.4,0.5,2.9,1.3l-1.1,1.1c-0.5-0.5-1.1-0.8-1.9-0.8
			c-1.3,0-2.7,1.1-2.7,2.4s1.1,2.4,2.7,2.4c0.8,0,1.3-0.3,1.9-0.8l1.1,1.1c-0.5,0.8-1.6,1.3-2.9,1.3
			C107.7,151.8,105.8,150.2,105.8,147.8z"/>
		<path class="st0" d="M114.1,141.1c0-0.5,0.5-1.1,1.1-1.1s1.1,0.5,1.1,1.1c0,0.5-0.5,1.1-1.1,1.1S114.1,141.6,114.1,141.1z
			 M114.4,144.1h1.6v7.5h-1.6V144.1z"/>
		<path class="st0" d="M118.1,147.8c0-2.4,1.9-4,4-4s4,1.6,4,4s-1.9,4-4,4S118.1,150.2,118.1,147.8z M124.5,147.8
			c0-1.3-1.1-2.4-2.4-2.4s-2.4,1.1-2.4,2.4c0,1.6,1.1,2.4,2.4,2.4S124.5,149.1,124.5,147.8z"/>
		<path class="st0" d="M135,147.3v4.3h-1.6v-4.3c0-1.3-0.8-1.9-1.6-1.9c-1.1,0-2.1,0.5-2.1,2.1v4H128v-7.5h1.6v1.1
			c0.5-0.8,1.6-1.3,2.4-1.3C133.9,143.8,135,145.1,135,147.3z"/>
		<path class="st0" d="M144.6,148.3h-6.2c0.3,1.3,1.1,1.9,2.4,1.9c0.8,0,1.6-0.3,2.1-1.1l1.3,0.5c-0.5,1.3-2.1,1.9-3.5,1.9
			c-2.1,0-4-1.6-4-4s1.9-4,4-4c2.1,0,3.7,1.6,3.7,4C144.6,148.1,144.6,148.1,144.6,148.3z M143,147c-0.3-1.1-1.1-1.6-2.1-1.6
			c-1.1,0-2.1,0.5-2.4,1.9h4.5V147z"/>
		<path class="st0" d="M145.9,149.1h1.6c0,0.5,0.5,1.1,1.3,1.1s1.3-0.5,1.3-1.1s-0.5-0.8-1.1-0.8l-1.1-0.3c-1.3-0.3-2.1-1.1-2.1-2.1
			c0-1.3,1.1-2.1,2.7-2.1c1.3,0,2.7,0.8,2.7,2.4h-1.6c0-0.5-0.5-0.8-1.1-0.8s-1.1,0.5-1.1,0.8c0,0.5,0.5,0.8,0.8,0.8l1.1,0.3
			c1.6,0.5,1.9,1.3,1.9,2.1c0,1.3-1.3,2.4-2.9,2.4C147.3,151.8,145.9,150.7,145.9,149.1z"/>
		<path class="st0" d="M152.4,154c0.8-1.3,1.3-2.4,1.3-4.3h1.6c0.3,1.9-0.5,3.7-1.9,4.8L152.4,154z"/>
		<path class="st0" d="M173.8,147.3v4.3h-1.6v-4.3c0-1.3-0.5-1.9-1.6-1.9s-1.9,0.8-1.9,1.9v4.3h-1.6v-4.3c0-1.3-0.5-1.9-1.6-1.9
			s-1.9,0.5-1.9,2.1v4H162v-7.5h1.6v1.3c0.3-0.8,1.3-1.3,2.4-1.3c1.1,0,2.1,0.5,2.4,1.6c0.8-1.3,1.9-1.6,2.7-1.6
			C172.7,143.8,173.8,145.1,173.8,147.3z"/>
		<path class="st0" d="M183.4,144.1v7.5h-1.6v-1.1c-0.5,0.8-1.6,1.3-2.7,1.3c-2.1,0-3.7-1.6-3.7-4s1.6-4,3.7-4
			c1.1,0,2.1,0.5,2.7,1.3v-1.1H183.4z M181.8,147.8c0-1.6-1.3-2.4-2.4-2.4c-1.3,0-2.4,1.1-2.4,2.4s1.1,2.4,2.4,2.4
			C180.7,150.2,181.8,149.4,181.8,147.8z M180.4,142.7h-1.3l1.6-2.7h1.9L180.4,142.7z"/>
		<path class="st0" d="M185.3,149.1h1.6c0,0.5,0.5,1.1,1.3,1.1s1.3-0.5,1.3-1.1s-0.5-0.8-1.1-0.8l-1.1-0.3c-1.3-0.3-2.1-1.1-2.1-2.1
			c0-1.3,1.1-2.1,2.7-2.1c1.3,0,2.7,0.8,2.7,2.4H189c0-0.5-0.5-0.8-1.1-0.8c-0.5,0-1.1,0.5-1.1,0.8c0,0.5,0.5,0.8,0.8,0.8l1.1,0.3
			c1.6,0.5,1.9,1.3,1.9,2.1c0,1.3-1.3,2.4-2.9,2.4C186.9,151.8,185.3,150.7,185.3,149.1z"/>
		<path class="st0" d="M204.3,148.3h-6.2c0.3,1.3,1.1,1.9,2.4,1.9c0.8,0,1.6-0.3,2.1-1.1l1.3,0.5c-0.5,1.3-2.1,1.9-3.5,1.9
			c-2.1,0-4-1.6-4-4s1.9-4,4-4s3.7,1.6,3.7,4C204.5,148.1,204.3,148.1,204.3,148.3z M202.9,147c-0.3-1.1-1.1-1.9-2.1-1.9
			c-1.1,0-2.1,0.5-2.4,1.9H202.9z"/>
		<path class="st0" d="M213.4,147.3v4.3h-1.6v-4.3c0-1.3-0.8-1.9-1.6-1.9c-1.1,0-2.1,0.5-2.1,2.1v4h-1.6v-7.5h1.3v1.1
			c0.5-0.8,1.6-1.3,2.4-1.3C212.3,143.8,213.4,145.1,213.4,147.3z"/>
		<path class="st0" d="M222.5,144.1l-3.2,7.5h-1.6l-3.2-7.5h1.6l2.1,5.6l2.1-5.6H222.5z"/>
		<path class="st0" d="M225.4,140h1.9l-1.9,2.7h-1.6L225.4,140z M223.8,144.1h1.6v7.5h-1.6V144.1z"/>
		<path class="st0" d="M227.3,147.8c0-2.4,1.9-4,4-4c2.1,0,4,1.6,4,4s-1.9,4-4,4C229.1,151.8,227.3,150.2,227.3,147.8z M233.7,147.8
			c0-1.3-1.1-2.4-2.4-2.4s-2.4,1.1-2.4,2.4c0,1.6,1.1,2.4,2.4,2.4C232.6,150.2,233.7,149.1,233.7,147.8z"/>
		<path class="st0" d="M236.6,149.1h1.6c0,0.5,0.5,1.1,1.3,1.1c0.8,0,1.3-0.5,1.3-1.1s-0.5-0.8-1.1-0.8l-1.1-0.3
			c-1.3-0.3-2.1-1.1-2.1-2.1c0-1.3,1.1-2.1,2.7-2.1c1.3,0,2.7,0.8,2.7,2.4h-1.6c0-0.5-0.5-0.8-1.1-0.8c-0.5,0-1.1,0.5-1.1,0.8
			c0,0.5,0.5,0.8,0.8,0.8l1.1,0.3c1.6,0.5,1.9,1.3,1.9,2.1c0,1.3-1.3,2.4-2.9,2.4C238,151.8,236.6,150.7,236.6,149.1z"/>
	</g>
	<g>
		<path class="st0" d="M22.3,102.3v3.7c1.3-2.7,5.1-4.3,8.8-4.3c7.5,0,14.4,6.2,14.4,15.3c0,9.6-6.7,15.5-14.4,15.5
			c-3.7,0-7.2-1.6-8.8-4.3v18.5h-9.9v-44.4H22.3z M29.3,124.3c3.7,0,7-2.7,7-7s-3.2-7.2-7-7.2s-7,2.9-7,7.2
			C22.6,121.6,25.8,124.3,29.3,124.3z"/>
		<path class="st0" d="M72.6,128.5c-1.9,2.9-6.4,4-8.6,4c-7.5,0-15.3-5.9-15.3-15.5s7.5-15.5,15.3-15.5c1.9,0,6.4,0.5,8.6,4v-3.2
			h9.9V132h-9.9V128.5z M65.4,124c3.7,0,7.2-2.7,7.2-7s-3.5-7-7.2-7c-3.7,0-7.5,2.7-7.5,7S61.6,124,65.4,124z"/>
		<path class="st0" d="M132.3,131.7h-9.9V87.3h9.9v23l7-8h11.2l-12.3,13.1l14.7,16.6h-11l-9.9-11.8v11.5H132.3z"/>
		<path class="st0" d="M99.1,131.7h-9.9V87.3h9.9v23l7-8h11.2L105,115.4l14.7,16.6h-11l-9.9-11.8v11.5H99.1z"/>
		<path class="st0" d="M181.2,126.4c-2.9,4.5-8.6,6.2-13.6,6.2c-8.6,0-15.5-6.2-15.5-15.5s7-15.3,15.5-15.3s15.3,6.4,15.3,15.5
			c0,0.8,0,1.9,0,2.7h-21.7c0.5,3.5,4.3,5.1,7.2,5.1c2.4,0,5.1-0.8,6.4-2.7L181.2,126.4z M174,114.4c-0.5-3.5-3.7-5.1-6.4-5.1
			c-2.4,0-5.9,1.3-6.7,5.1H174z"/>
	</g>
	<g>
		<rect x="232.1" y="102.3" class="st1" width="9.9" height="9.9"/>
		<rect x="232.4" y="122.1" class="st1" width="9.9" height="9.9"/>
		<rect x="212.3" y="102.3" class="st1" width="9.9" height="9.9"/>
		<rect x="212.6" y="122.1" class="st1" width="9.9" height="9.9"/>
	</g>
</g>
</svg>
