<?xml version="1.0" encoding="UTF-8" standalone="no"?><!DOCTYPE svg PUBLIC "-//W3C//DTD SVG 1.1//EN" "http://www.w3.org/Graphics/SVG/1.1/DTD/svg11.dtd"><svg width="100%" height="100%" viewBox="0 0 176 36" version="1.1" xmlns="http://www.w3.org/2000/svg" xmlns:xlink="http://www.w3.org/1999/xlink" xml:space="preserve" xmlns:serif="http://www.serif.com/" style="fill-rule:evenodd;clip-rule:evenodd;stroke-linejoin:round;stroke-miterlimit:2;"><rect id="grupoampm-color" serif:id="grupoampm color" x="0" y="0" width="176" height="36" style="fill:none;"/><g><path d="M53.339,17.011l-4.199,6.356l0.64,0.305l3.559,-6.661Z" style="fill:none;"/><path d="M49.14,33.538c-0.094,0 -0.188,-0.002 -0.282,-0.004c-0.093,-0.003 -0.187,-0.007 -0.28,-0.012l0.562,0.016Zm-9.805,-8.766c-0.04,-0.361 -0.061,-0.728 -0.061,-1.1c0,-5.445 4.421,-9.865 9.866,-9.865c5.445,0 9.865,4.42 9.865,9.865c0,5.445 -4.42,9.866 -9.865,9.866c-7.828,-1.089 -7.902,-8.811 -7.902,-8.811l-1.903,0.045Zm9.748,6.746c0.336,0 0.609,0.272 0.609,0.608c0,0.336 -0.273,0.609 -0.609,0.609c-0.336,0 -0.608,-0.273 -0.608,-0.609c0,-0.336 0.272,-0.608 0.608,-0.608Zm4.02,-14.306c0.006,-0.008 0.012,-0.015 0.02,-0.021c0.015,-0.012 0.035,-0.017 0.055,-0.016c0.032,0.004 0.065,0.027 0.07,0.061c0.001,0.005 0.001,0.01 0.001,0.015c-0.001,0.01 -0.004,0.019 -0.009,0.027l-3.376,6.239c0.082,0.132 0.13,0.287 0.13,0.454c0,0.471 -0.383,0.854 -0.854,0.854c-0.397,0 -0.731,-0.271 -0.827,-0.638l-4.293,-3.125c-0.029,-0.027 -0.052,-0.059 -0.067,-0.095c-0.007,-0.018 -0.012,-0.036 -0.015,-0.055c-0.02,-0.136 0.079,-0.273 0.21,-0.307c0.041,-0.011 0.084,-0.011 0.126,0c0.023,0.006 0.045,0.016 0.065,0.027l4.485,2.545c0.098,-0.039 0.204,-0.061 0.316,-0.061c0.052,0 0.103,0.005 0.152,0.014l3.811,-5.918Zm4.421,5.852c0.335,0 0.608,0.272 0.608,0.608c0,0.336 -0.273,0.609 -0.608,0.609c-0.336,0 -0.609,-0.273 -0.609,-0.609c0,-0.336 0.273,-0.608 0.609,-0.608Zm-16.974,-0.069c0.336,0 0.608,0.273 0.608,0.608c0,0.336 -0.272,0.609 -0.608,0.609c-0.336,0 -0.609,-0.273 -0.609,-0.609c0,-0.335 0.273,-0.608 0.609,-0.608Zm22.705,0.915l-1.811,0c0,-5.942 -4.203,-10.911 -9.795,-12.093c0.001,-0.03 0.002,-0.059 0.002,-0.089c0,-0.873 -0.578,-1.612 -1.372,-1.855l0,-0.085c7.263,0.608 12.976,6.703 12.976,14.122Zm-14.153,-9.371c0.336,0 0.609,0.273 0.609,0.608c0,0.336 -0.273,0.609 -0.609,0.609c-0.336,0 -0.608,-0.273 -0.608,-0.609c0,-0.335 0.272,-0.608 0.608,-0.608Z" style="fill:#1f3d7c;"/><path d="M76.242,26.923l0,-1.449l-0.045,0c-0.786,1.508 -2.717,1.761 -4.29,1.761c-1.103,0 -1.963,-0.36 -2.579,-1.081c-0.616,-0.721 -0.924,-1.678 -0.924,-2.87c0,-2.517 1.392,-4.195 4.197,-4.596l3.25,-0.3c0,-0.416 -0.216,-0.955 -0.564,-1.222c-0.347,-0.267 -1.12,-0.552 -1.679,-0.552c-1.292,0 -2.664,0.277 -4.116,1.094l0,-2.876c1.52,-0.684 3.115,-1.025 4.785,-1.025c1.958,0 3.384,0.46 4.28,1.381c0.896,0.921 1.344,2.478 1.344,4.67l0,7.065l-3.659,0Zm-2.384,-5.614c-0.817,0.125 -1.476,0.546 -1.476,1.263c0,0.341 0.054,0.749 0.251,0.979c0.196,0.229 0.779,0.472 1.157,0.472c0.498,0 1.157,-0.209 1.475,-0.626c0.317,-0.416 0.476,-1.201 0.476,-1.851l0,-0.487l-1.883,0.25Z" style="fill:#e32526;fill-rule:nonzero;"/><path d="M97.062,26.923l0,-7.377c0,-1.226 -0.532,-2.467 -1.832,-2.467c-1.301,0 -1.819,1.329 -1.819,2.729l0,7.115l-4.099,0l0,-7.252c0,-1.309 -0.207,-2.636 -1.516,-2.643c-1.31,-0.006 -2.194,1.413 -2.194,2.88l0,7.015l-3.865,0l0,-12.804l3.36,0l0,2.026l0.044,0c0.293,-0.631 0.986,-1.357 1.658,-1.811c0.671,-0.455 1.649,-0.527 2.427,-0.527c1.571,0 2.701,0.746 3.391,2.238c0.859,-1.492 3.089,-2.238 4.755,-2.238c1.167,0 2.07,0.433 2.709,1.3c0.638,0.867 0.958,2.134 0.958,3.801l0,8.015l-3.977,0Z" style="fill:#e32526;fill-rule:nonzero;"/><path d="M132.75,26.923l0,-7.377c0,-1.226 -0.532,-2.467 -1.833,-2.467c-1.3,0 -1.818,1.329 -1.818,2.729l0,7.115l-4.1,0l0,-7.252c0,-1.309 -0.207,-2.636 -1.516,-2.643c-1.309,-0.006 -2.194,1.413 -2.194,2.88l0,7.015l-3.864,0l0,-12.804l3.359,0l0,2.026l0.044,0c0.293,-0.631 0.986,-1.357 1.658,-1.811c0.672,-0.455 1.65,-0.527 2.428,-0.527c1.57,0 2.701,0.746 3.391,2.238c0.859,-1.492 3.088,-2.238 4.754,-2.238c1.168,0 2.07,0.433 2.709,1.3c0.639,0.867 0.958,2.134 0.958,3.801l0,8.015l-3.976,0Z" style="fill:#1f3d7c;fill-rule:nonzero;"/><path d="M106.942,25.597l-0.041,0l0,6.714l-3.938,0l0,-18.192l3.938,0l0,1.738l0.041,0c0.771,-1.367 2.37,-2.05 3.794,-2.05c1.631,0 3.279,0.819 4.121,1.846c0.799,0.973 1.394,2.488 1.394,4.48c0,2.159 -0.488,3.848 -1.532,5.141c-0.983,1.218 -3.069,1.961 -4.431,1.961c-1.236,0 -2.686,-0.546 -3.346,-1.638Zm-0.125,-5.176l0,0.25c0,1.776 0.909,3.415 2.503,3.415c1.001,0 1.936,-0.612 2.228,-1.146c0.292,-0.533 0.452,-1.685 0.452,-2.644c0,-1.726 -1.017,-3.34 -3.098,-3.34c-0.458,0 -1.134,0.569 -1.433,1.044c-0.299,0.475 -0.652,1.562 -0.652,2.421Z" style="fill:#1f3d7c;fill-rule:nonzero;"/><path d="M88.804,11.952l-1.932,0l0,-7.355l1.932,0l0,0.684l0.018,0c0.335,-0.538 0.813,-0.807 1.432,-0.807c0.605,0 1.065,0.219 1.38,0.657c0.316,0.438 0.474,1.049 0.474,1.833c0,0.849 -0.193,1.527 -0.58,2.034c-0.387,0.507 -0.876,0.76 -1.469,0.76c-0.538,0 -0.95,-0.215 -1.237,-0.645l-0.018,0l0,2.839Zm-13.326,-2.78c-0.268,0.155 -0.643,0.291 -1.124,0.409c-0.481,0.118 -0.953,0.177 -1.416,0.177c-1.163,0 -2.06,-0.311 -2.692,-0.932c-0.633,-0.622 -0.949,-1.487 -0.949,-2.595c0,-1.109 0.34,-2.014 1.02,-2.716c0.68,-0.702 1.633,-1.053 2.857,-1.053c0.592,0 1.207,0.087 1.846,0.261l0,1.855c-0.524,-0.263 -1.124,-0.394 -1.8,-0.394c-0.543,0 -0.978,0.176 -1.307,0.526c-0.328,0.351 -0.492,0.834 -0.492,1.447c0,0.603 0.14,1.067 0.421,1.39c0.28,0.323 0.658,0.484 1.133,0.484c0.216,0 0.384,-0.013 0.504,-0.039l0,-1.009l-1.272,0l0,-1.608l3.271,0l0,3.797Zm8.174,-0.314c-0.378,0.6 -0.853,0.9 -1.423,0.9c-1.033,0 -1.549,-0.707 -1.549,-2.12l0,-3.041l1.918,0l0,2.883c0,0.495 0.17,0.743 0.509,0.743c0.375,0 0.563,-0.257 0.563,-0.772l0,-2.854l1.918,0l0,5.038l-1.918,0l0,-0.777l-0.018,0Zm11.946,0.9c-0.872,0 -1.551,-0.238 -2.037,-0.713c-0.486,-0.476 -0.729,-1.129 -0.729,-1.958c0,-0.81 0.253,-1.448 0.76,-1.914c0.506,-0.466 1.178,-0.699 2.015,-0.699c0.863,0 1.541,0.244 2.035,0.731c0.493,0.487 0.74,1.094 0.74,1.823c0,0.839 -0.243,1.504 -0.731,1.994c-0.487,0.491 -1.172,0.736 -2.053,0.736Zm-17.028,-0.123l-1.847,0l0,-5.038l1.847,0l0,0.886l0.018,0c0.234,-0.65 0.637,-0.974 1.209,-0.974c0.104,0 0.192,0.019 0.265,0.059l0,1.825c-0.197,-0.095 -0.389,-0.143 -0.577,-0.143c-0.61,0 -0.915,0.4 -0.915,1.201l0,2.184Zm17.037,-3.626c-0.5,0 -0.75,0.359 -0.75,1.078c0,0.757 0.253,1.136 0.76,1.136c0.493,0 0.74,-0.395 0.74,-1.186c0,-0.685 -0.25,-1.028 -0.75,-1.028Zm-6.84,1.068l0,0.098c0,0.699 0.218,1.048 0.653,1.048c0.233,0 0.413,-0.105 0.54,-0.315c0.126,-0.21 0.19,-0.503 0.19,-0.88c0,-0.679 -0.231,-1.019 -0.694,-1.019c-0.199,0 -0.364,0.094 -0.494,0.281c-0.13,0.187 -0.195,0.449 -0.195,0.787Z" style="fill:#1f3d7c;fill-rule:nonzero;"/></g></svg>