<?xml version="1.0" encoding="utf-8"?>
<!-- Generator: Adobe Illustrator 24.0.0, SVG Export Plug-In . SVG Version: 6.00 Build 0)  -->
<svg version="1.1" id="Capa_1" xmlns="http://www.w3.org/2000/svg" xmlns:xlink="http://www.w3.org/1999/xlink" x="0px" y="0px"
	 viewBox="0 0 86 28" style="enable-background:new 0 0 86 28;" xml:space="preserve">
<style type="text/css">
	.st0{fill:#243746;}
	.st1{fill:#E40E20;}
</style>
<g>
	<g>
		<path class="st0" d="M18.5,25.3l-0.4-3l-1.2,2.6h-0.5l-1.3-2.6l-0.4,3h-0.6l0.5-4.2h0.6l1.4,3l1.4-3h0.6l0.5,4.2H18.5z"/>
		<path class="st0" d="M22.7,22.5v2.8h-0.6v-0.4c-0.2,0.3-0.6,0.5-1,0.5c-0.8,0-1.4-0.6-1.4-1.5c0-0.9,0.6-1.5,1.4-1.5
			c0.4,0,0.8,0.2,1,0.5v-0.4H22.7z M22.1,23.9c0-0.6-0.5-0.9-0.9-0.9c-0.5,0-0.9,0.4-0.9,0.9c0,0.5,0.4,0.9,0.9,0.9
			C21.7,24.8,22.1,24.5,22.1,23.9z M21.6,22h-0.5l0.6-1h0.7L21.6,22z"/>
		<path class="st0" d="M23.4,24.4h0.6c0,0.2,0.2,0.4,0.5,0.4c0.3,0,0.5-0.2,0.5-0.4c0-0.2-0.2-0.3-0.4-0.3l-0.4-0.1
			c-0.5-0.1-0.8-0.4-0.8-0.8c0-0.5,0.4-0.8,1-0.8c0.5,0,1,0.3,1,0.9h-0.6c0-0.2-0.2-0.3-0.4-0.3c-0.2,0-0.4,0.2-0.4,0.3
			c0,0.2,0.2,0.3,0.3,0.3l0.4,0.1c0.6,0.2,0.7,0.5,0.7,0.8c0,0.5-0.5,0.9-1.1,0.9C23.9,25.4,23.4,25,23.4,24.4z"/>
		<path class="st0" d="M27.6,23.9c0-0.9,0.7-1.5,1.5-1.5s1.5,0.6,1.5,1.5c0,0.9-0.7,1.5-1.5,1.5S27.6,24.8,27.6,23.9z M30,23.9
			c0-0.5-0.4-0.9-0.9-0.9s-0.9,0.4-0.9,0.9c0,0.6,0.4,0.9,0.9,0.9S30,24.4,30,23.9z"/>
		<path class="st0" d="M34.3,23.9c0,0.9-0.6,1.5-1.4,1.5c-0.4,0-0.8-0.2-1-0.5v1.8h-0.6v-4.2h0.6v0.4c0.2-0.3,0.6-0.5,1-0.5
			C33.7,22.4,34.3,23,34.3,23.9z M33.7,23.9c0-0.5-0.4-0.9-0.9-0.9c-0.5,0-0.9,0.4-0.9,0.9c0,0.6,0.5,0.9,0.9,0.9
			C33.3,24.8,33.7,24.4,33.7,23.9z"/>
		<path class="st0" d="M34.9,23.9c0-0.9,0.7-1.5,1.5-1.5c0.5,0,0.9,0.2,1.1,0.5l-0.4,0.4c-0.2-0.2-0.4-0.3-0.7-0.3
			c-0.5,0-1,0.4-1,0.9c0,0.5,0.4,0.9,1,0.9c0.3,0,0.5-0.1,0.7-0.3l0.4,0.4c-0.2,0.3-0.6,0.5-1.1,0.5C35.6,25.4,34.9,24.8,34.9,23.9z
			"/>
		<path class="st0" d="M38,21.4c0-0.2,0.2-0.4,0.4-0.4c0.2,0,0.4,0.2,0.4,0.4c0,0.2-0.2,0.4-0.4,0.4C38.2,21.8,38,21.6,38,21.4z
			 M38.1,22.5h0.6v2.8h-0.6V22.5z"/>
		<path class="st0" d="M39.5,23.9c0-0.9,0.7-1.5,1.5-1.5s1.5,0.6,1.5,1.5c0,0.9-0.7,1.5-1.5,1.5S39.5,24.8,39.5,23.9z M41.9,23.9
			c0-0.5-0.4-0.9-0.9-0.9s-0.9,0.4-0.9,0.9c0,0.6,0.4,0.9,0.9,0.9S41.9,24.4,41.9,23.9z"/>
		<path class="st0" d="M45.8,23.7v1.6h-0.6v-1.6c0-0.5-0.3-0.7-0.6-0.7c-0.4,0-0.8,0.2-0.8,0.8v1.5h-0.6v-2.8h0.6v0.4
			c0.2-0.3,0.6-0.5,0.9-0.5C45.4,22.4,45.8,22.9,45.8,23.7z"/>
		<path class="st0" d="M49.4,24.1h-2.3c0.1,0.5,0.4,0.7,0.9,0.7c0.3,0,0.6-0.1,0.8-0.4l0.5,0.2c-0.2,0.5-0.8,0.7-1.3,0.7
			c-0.8,0-1.5-0.6-1.5-1.5c0-0.9,0.7-1.5,1.5-1.5c0.8,0,1.4,0.6,1.4,1.5C49.4,24,49.4,24,49.4,24.1z M48.8,23.6
			C48.7,23.2,48.4,23,48,23s-0.8,0.2-0.9,0.7H48.8z"/>
		<path class="st0" d="M49.9,24.4h0.6c0,0.2,0.2,0.4,0.5,0.4c0.3,0,0.5-0.2,0.5-0.4c0-0.2-0.2-0.3-0.4-0.3l-0.4-0.1
			c-0.5-0.1-0.8-0.4-0.8-0.8c0-0.5,0.4-0.8,1-0.8c0.5,0,1,0.3,1,0.9h-0.6c0-0.2-0.2-0.3-0.4-0.3c-0.2,0-0.4,0.2-0.4,0.3
			c0,0.2,0.2,0.3,0.3,0.3l0.4,0.1c0.6,0.2,0.7,0.5,0.7,0.8c0,0.5-0.5,0.9-1.1,0.9C50.4,25.4,49.9,25,49.9,24.4z"/>
		<path class="st0" d="M52.3,26.2c0.3-0.5,0.5-0.9,0.5-1.6h0.6c0.1,0.7-0.2,1.4-0.7,1.8L52.3,26.2z"/>
		<path class="st0" d="M60.3,23.7v1.6h-0.6v-1.6c0-0.5-0.2-0.7-0.6-0.7c-0.4,0-0.7,0.3-0.7,0.7v1.6h-0.6v-1.6c0-0.5-0.2-0.7-0.6-0.7
			c-0.4,0-0.7,0.2-0.7,0.8v1.5h-0.6v-2.8h0.6v0.5c0.1-0.3,0.5-0.5,0.9-0.5c0.4,0,0.8,0.2,0.9,0.6c0.3-0.5,0.7-0.6,1-0.6
			C59.9,22.4,60.3,22.9,60.3,23.7z"/>
		<path class="st0" d="M63.9,22.5v2.8h-0.6v-0.4c-0.2,0.3-0.6,0.5-1,0.5c-0.8,0-1.4-0.6-1.4-1.5c0-0.9,0.6-1.5,1.4-1.5
			c0.4,0,0.8,0.2,1,0.5v-0.4H63.9z M63.3,23.9c0-0.6-0.5-0.9-0.9-0.9c-0.5,0-0.9,0.4-0.9,0.9c0,0.5,0.4,0.9,0.9,0.9
			C62.9,24.8,63.3,24.5,63.3,23.9z M62.8,22h-0.5l0.6-1h0.7L62.8,22z"/>
		<path class="st0" d="M64.6,24.4h0.6c0,0.2,0.2,0.4,0.5,0.4c0.3,0,0.5-0.2,0.5-0.4c0-0.2-0.2-0.3-0.4-0.3l-0.4-0.1
			c-0.5-0.1-0.8-0.4-0.8-0.8c0-0.5,0.4-0.8,1-0.8c0.5,0,1,0.3,1,0.9h-0.6c0-0.2-0.2-0.3-0.4-0.3c-0.2,0-0.4,0.2-0.4,0.3
			c0,0.2,0.2,0.3,0.3,0.3l0.4,0.1c0.6,0.2,0.7,0.5,0.7,0.8c0,0.5-0.5,0.9-1.1,0.9C65.2,25.4,64.6,25,64.6,24.4z"/>
		<path class="st0" d="M71.7,24.1h-2.3c0.1,0.5,0.4,0.7,0.9,0.7c0.3,0,0.6-0.1,0.8-0.4l0.5,0.2c-0.2,0.5-0.8,0.7-1.3,0.7
			c-0.8,0-1.5-0.6-1.5-1.5c0-0.9,0.7-1.5,1.5-1.5c0.8,0,1.4,0.6,1.4,1.5C71.8,24,71.7,24,71.7,24.1z M71.2,23.6
			c-0.1-0.4-0.4-0.7-0.8-0.7s-0.8,0.2-0.9,0.7H71.2z"/>
		<path class="st0" d="M75.1,23.7v1.6h-0.6v-1.6c0-0.5-0.3-0.7-0.6-0.7c-0.4,0-0.8,0.2-0.8,0.8v1.5h-0.6v-2.8H73v0.4
			c0.2-0.3,0.6-0.5,0.9-0.5C74.7,22.4,75.1,22.9,75.1,23.7z"/>
		<path class="st0" d="M78.5,22.5l-1.2,2.8h-0.6l-1.2-2.8h0.6l0.8,2.1l0.8-2.1H78.5z"/>
		<path class="st0" d="M79.6,21h0.7l-0.7,1H79L79.6,21z M79,22.5h0.6v2.8H79V22.5z"/>
		<path class="st0" d="M80.3,23.9c0-0.9,0.7-1.5,1.5-1.5c0.8,0,1.5,0.6,1.5,1.5c0,0.9-0.7,1.5-1.5,1.5C81,25.4,80.3,24.8,80.3,23.9z
			 M82.7,23.9c0-0.5-0.4-0.9-0.9-0.9c-0.5,0-0.9,0.4-0.9,0.9c0,0.6,0.4,0.9,0.9,0.9C82.3,24.8,82.7,24.4,82.7,23.9z"/>
		<path class="st0" d="M83.8,24.4h0.6c0,0.2,0.2,0.4,0.5,0.4c0.3,0,0.5-0.2,0.5-0.4c0-0.2-0.2-0.3-0.4-0.3l-0.4-0.1
			c-0.5-0.1-0.8-0.4-0.8-0.8c0-0.5,0.4-0.8,1-0.8c0.5,0,1,0.3,1,0.9h-0.6c0-0.2-0.2-0.3-0.4-0.3c-0.2,0-0.4,0.2-0.4,0.3
			c0,0.2,0.2,0.3,0.3,0.3l0.4,0.1c0.6,0.2,0.7,0.5,0.7,0.8c0,0.5-0.5,0.9-1.1,0.9C84.3,25.4,83.8,25,83.8,24.4z"/>
	</g>
	<g>
		<path class="st0" d="M3.7,6.9v1.4c0.5-1,1.9-1.6,3.3-1.6c2.8,0,5.4,2.3,5.4,5.7c0,3.6-2.5,5.8-5.4,5.8c-1.4,0-2.7-0.6-3.3-1.6v6.9
			H0V6.9H3.7z M6.3,15.1c1.4,0,2.6-1,2.6-2.6c0-1.6-1.2-2.7-2.6-2.7c-1.4,0-2.6,1.1-2.6,2.7C3.8,14.1,5,15.1,6.3,15.1z"/>
		<path class="st0" d="M22.5,16.7c-0.7,1.1-2.4,1.5-3.2,1.5c-2.8,0-5.7-2.2-5.7-5.8s2.8-5.8,5.7-5.8c0.7,0,2.4,0.2,3.2,1.5V6.9h3.7
			v11.1h-3.7V16.7z M19.8,15c1.4,0,2.7-1,2.7-2.6s-1.3-2.6-2.7-2.6c-1.4,0-2.8,1-2.8,2.6S18.4,15,19.8,15z"/>
		<path class="st0" d="M44.8,17.9h-3.7V1.3h3.7v8.6l2.6-3h4.2l-4.6,4.9l5.5,6.2h-4.1l-3.7-4.4V17.9z"/>
		<path class="st0" d="M32.4,17.9h-3.7V1.3h3.7v8.6l2.6-3h4.2l-4.6,4.9l5.5,6.2h-4.1l-3.7-4.4V17.9z"/>
		<path class="st0" d="M63.1,15.9c-1.1,1.7-3.2,2.3-5.1,2.3c-3.2,0-5.8-2.3-5.8-5.8s2.6-5.7,5.8-5.7c3.2,0,5.7,2.4,5.7,5.8
			c0,0.3,0,0.7,0,1h-8.1c0.2,1.3,1.6,1.9,2.7,1.9c0.9,0,1.9-0.3,2.4-1L63.1,15.9z M60.4,11.4C60.2,10.1,59,9.5,58,9.5
			c-0.9,0-2.2,0.5-2.5,1.9H60.4z"/>
	</g>
	<g>
		
			<rect x="82.2" y="6.9" transform="matrix(-1.836970e-16 1 -1 -1.836970e-16 92.7068 -75.3086)" class="st1" width="3.7" height="3.7"/>
		
			<rect x="82.2" y="14.2" transform="matrix(-1.836970e-16 1 -1 -1.836970e-16 100.0996 -67.9158)" class="st1" width="3.7" height="3.7"/>
		
			<rect x="74.8" y="6.9" transform="matrix(-1.836970e-16 1 -1 -1.836970e-16 85.314 -67.9158)" class="st1" width="3.7" height="3.7"/>
		
			<rect x="74.8" y="14.2" transform="matrix(-1.836970e-16 1 -1 -1.836970e-16 92.7068 -60.523)" class="st1" width="3.7" height="3.7"/>
	</g>
</g>
</svg>
