<?xml version="1.0" encoding="UTF-8" standalone="no"?><!DOCTYPE svg PUBLIC "-//W3C//DTD SVG 1.1//EN" "http://www.w3.org/Graphics/SVG/1.1/DTD/svg11.dtd"><svg width="100%" height="100%" viewBox="0 0 176 36" version="1.1" xmlns="http://www.w3.org/2000/svg" xmlns:xlink="http://www.w3.org/1999/xlink" xml:space="preserve" xmlns:serif="http://www.serif.com/" style="fill-rule:evenodd;clip-rule:evenodd;stroke-linejoin:round;stroke-miterlimit:2;"><rect id="DHL-color" serif:id="DHL color" x="0" y="0" width="176" height="36" style="fill:none;"/><g id="DHL-color1" serif:id="DHL color"><g><rect x="0" y="0" width="176" height="36" style="fill:#ffcb03;fill-rule:nonzero;"/><path d="M30.95,5.555l-5.622,7.639l30.646,0c1.549,0 1.529,0.589 0.771,1.614c-0.768,1.042 -2.055,2.853 -2.839,3.91c-0.397,0.537 -1.116,1.515 1.266,1.515l12.532,0c0,0 2.02,-2.749 3.713,-5.047c2.304,-3.126 0.2,-9.631 -8.035,-9.631l-32.432,0Z" style="fill:#d71634;fill-rule:nonzero;"/><path d="M23.052,30.443l11.295,-15.346l14.016,0c1.548,0 1.528,0.589 0.771,1.615c-0.769,1.041 -2.077,2.833 -2.86,3.89c-0.398,0.537 -1.116,1.517 1.265,1.517l18.776,0c-1.561,2.138 -6.626,8.324 -15.722,8.324l-27.541,0Z" style="fill:#d71634;fill-rule:nonzero;"/><path d="M87.735,22.117l-6.124,8.326l-16.157,0c0,0 6.122,-8.324 6.127,-8.324l16.154,-0.002Z" style="fill:#d71634;fill-rule:nonzero;"/><path d="M112.486,20.233l-39.517,0l10.806,-14.678l16.152,0l-6.194,8.416l7.21,0l6.196,-8.416l16.15,0l-10.803,14.678Z" style="fill:#d71634;fill-rule:nonzero;"/><path d="M111.099,22.119l-6.128,8.324l-16.15,0c0,0 6.121,-8.324 6.127,-8.324l16.151,0Z" style="fill:#d71634;fill-rule:nonzero;"/><path d="M0,25.401l23.8,0l-1.3,1.769l-22.5,0l0,-1.769Z" style="fill:#d71634;fill-rule:nonzero;"/><path d="M0,22.119l26.219,0l-1.303,1.766l-24.916,0l0,-1.766Z" style="fill:#d71634;fill-rule:nonzero;"/><path d="M0,28.686l21.383,0l-1.294,1.757l-20.089,0l0,-1.757Z" style="fill:#d71634;fill-rule:nonzero;"/><path d="M176,27.17l-23.71,0l1.302,-1.769l22.408,0l0,1.769Z" style="fill:#d71634;fill-rule:nonzero;"/><path d="M176,30.443l-26.12,0.002l1.294,-1.759l24.826,0l0,1.757Z" style="fill:#d71634;fill-rule:nonzero;"/><path d="M156.006,22.119l19.994,0l0,1.767l-21.293,0.001l1.299,-1.768Z" style="fill:#d71634;fill-rule:nonzero;"/><path d="M145.657,5.555l-10.805,14.678l-17.114,0c0,0 10.807,-14.678 10.813,-14.678l17.106,0Z" style="fill:#d71634;fill-rule:nonzero;"/><path d="M116.353,22.119c0,0 -1.181,1.613 -1.754,2.388c-2.029,2.742 -0.235,5.936 6.385,5.936l25.939,0l6.127,-8.324l-36.697,0Z" style="fill:#d71634;fill-rule:nonzero;"/></g></g></svg>