<?xml version="1.0" encoding="UTF-8" standalone="no"?><!DOCTYPE svg PUBLIC "-//W3C//DTD SVG 1.1//EN" "http://www.w3.org/Graphics/SVG/1.1/DTD/svg11.dtd"><svg width="100%" height="100%" viewBox="0 0 176 36" version="1.1" xmlns="http://www.w3.org/2000/svg" xmlns:xlink="http://www.w3.org/1999/xlink" xml:space="preserve" xmlns:serif="http://www.serif.com/" style="fill-rule:evenodd;clip-rule:evenodd;stroke-linejoin:round;stroke-miterlimit:1.41421;"><rect id="redpack-color" serif:id="redpack color" x="0" y="0" width="176" height="36" style="fill:none;"/><g><path d="M21.052,28.573l-5.794,0l9.953,-21.126l12.249,0l0.414,0.042l0.393,0.041l0.373,0.021l0.352,0.062l0.31,0.041l0.31,0.083l0.29,0.083l0.248,0.083l0.249,0.103l0.207,0.124l0.186,0.103l0.165,0.125l0.145,0.144l0.145,0.145l0.104,0.166l0.103,0.228l0.062,0.207l0.062,0.227l0.042,0.228l0,0.559l-0.042,0.31l-0.062,0.331l-0.062,0.331l-0.083,0.352l-0.124,0.372l-0.145,0.372l-0.165,0.435l-0.166,0.414l-0.207,0.455l-0.641,1.345l-0.207,0.435l-0.207,0.413l-0.228,0.394l-0.248,0.393l-0.207,0.351l-0.269,0.332l-0.248,0.351l-0.248,0.29l-0.269,0.311l-0.269,0.269l-0.29,0.268l-0.269,0.249l-0.31,0.207l-0.29,0.227l-0.311,0.187l-0.31,0.165l-0.248,0.124l-0.269,0.124l-0.29,0.125l-0.29,0.103l-0.31,0.103l-0.331,0.104l-0.662,0.165l0.372,0.062l0.311,0.062l0.331,0.083l0.269,0.083l0.227,0.083l0.228,0.103l0.166,0.104l0.144,0.103l0.104,0.124l0.103,0.145l0.062,0.166l0.062,0.165l0.042,0.207l0,0.456l-0.042,0.268l-0.041,0.29l-0.062,0.269l-0.083,0.331l-0.103,0.331l-0.124,0.352l-0.145,0.393l-0.186,0.372l-0.187,0.414l-1.386,2.938l-5.608,0l1.387,-2.938l0.145,-0.31l0.103,-0.31l0.083,-0.269l0.041,-0.249l0.042,-0.227l-0.021,-0.187l-0.021,-0.165l-0.062,-0.145l-0.103,-0.124l-0.124,-0.124l-0.166,-0.083l-0.186,-0.083l-0.228,-0.041l-0.248,-0.062l-0.31,-0.021l-4.553,0l-2.524,5.338Zm11.629,-16.222l-3.994,0l-2.793,5.959l3.331,0l0.435,-0.02l0.434,-0.021l0.249,0l0.123,-0.02l0.373,-0.042l0.331,-0.062l0.29,-0.083l0.269,-0.103l0.228,-0.104l0.269,-0.165l0.248,-0.187l0.269,-0.248l0.227,-0.269l0.249,-0.289l0.207,-0.352l0.227,-0.393l0.207,-0.414l0.642,-1.366l0.124,-0.289l0.103,-0.249l0.042,-0.248l0.02,-0.207l-0.02,-0.103l0,-0.083l-0.042,-0.083l-0.02,-0.083l-0.042,-0.062l-0.062,-0.062l-0.062,-0.062l-0.062,-0.042l-0.104,-0.062l-0.145,-0.062l-0.186,-0.02l-0.207,-0.042l-0.227,-0.02l-0.269,-0.021l-0.662,-0.021Z" style="fill:#d62f27;"/><path d="M58.587,12.103l-9.601,0l-1.821,3.931l8.98,0l-1.841,3.932l-9.001,0l-1.863,3.952l9.767,0l-2.193,4.655l-15.561,0l9.932,-21.126l15.395,0l-2.193,4.656Z" style="fill:#d62f27;"/><path d="M64.132,28.573l-11.36,0l9.932,-21.126l11.712,0l0.579,0.021l0.518,0.062l0.496,0.062l0.455,0.062l0.435,0.124l0.393,0.104l0.373,0.145l0.31,0.145l0.31,0.186l0.249,0.186l0.248,0.186l0.186,0.249l0.166,0.248l0.124,0.269l0.083,0.289l0.062,0.249l0.041,0.289l0.021,0.29l-0.021,0.352l-0.041,0.331l-0.062,0.414l-0.062,0.393l-0.125,0.434l-0.124,0.456l-0.145,0.476l-0.186,0.517l-0.186,0.517l-0.207,0.559l-0.269,0.579l-0.248,0.6l-0.29,0.642l-1.055,2.193l-0.29,0.641l-0.31,0.642l-0.311,0.579l-0.331,0.58l-0.289,0.538l-0.331,0.496l-0.29,0.517l-0.311,0.456l-0.331,0.434l-0.31,0.414l-0.31,0.414l-0.331,0.352l-0.29,0.331l-0.31,0.31l-0.332,0.29l-0.289,0.269l-0.373,0.269l-0.393,0.248l-0.393,0.248l-0.434,0.228l-0.414,0.186l-0.456,0.186l-0.475,0.166l-0.994,0.29l-0.517,0.103l-0.103,0.021l-0.435,0.083l-0.559,0.062l-0.579,0.062l-0.579,0.062l-0.642,0.02Zm7.594,-16.222l-5.525,0l-5.317,11.319l5.193,0l0.228,-0.021l0.227,-0.042l0.228,-0.041l0.166,-0.041l0.041,0l0.207,-0.083l0.207,-0.062l0.207,-0.062l0.186,-0.104l0.186,-0.103l0.166,-0.124l0.165,-0.124l0.186,-0.145l0.166,-0.145l0.145,-0.145l0.145,-0.186l0.145,-0.207l0.165,-0.248l0.207,-0.311l0.186,-0.352l0.476,-0.91l0.538,-1.138l1.014,-2.111l0.497,-1.096l0.393,-0.89l0.248,-0.641l0.083,-0.228l0.041,-0.186l0.021,-0.187l0.021,-0.165l0,-0.186l-0.021,-0.145l-0.021,-0.145l-0.062,-0.124l-0.062,-0.124l-0.083,-0.083l-0.082,-0.103l-0.125,-0.083l-0.124,-0.062l-0.145,-0.062l-0.144,-0.042l-0.187,-0.02l-0.186,-0.042Z" style="fill:#d62f27;"/><path d="M79.279,28.573l-5.815,0l9.953,-21.126l10.946,0l0.496,0.042l0.477,0.041l0.434,0.042l0.414,0.041l0.414,0.062l0.703,0.165l0.29,0.083l0.269,0.124l0.269,0.104l0.207,0.124l0.207,0.145l0.165,0.145l0.145,0.145l0.145,0.206l0.083,0.208l0.082,0.248l0.063,0.269l0.041,0.289l0,0.29l-0.021,0.331l-0.041,0.352l-0.062,0.393l-0.104,0.393l-0.103,0.414l-0.145,0.455l-0.186,0.455l-0.187,0.497l-0.227,0.496l-0.228,0.559l-0.786,1.656l-0.269,0.558l-0.269,0.518l-0.29,0.517l-0.289,0.476l-0.29,0.476l-0.269,0.413l-0.31,0.435l-0.311,0.372l-0.31,0.373l-0.331,0.331l-0.311,0.31l-0.31,0.29l-0.352,0.269l-0.331,0.228l-0.352,0.227l-0.331,0.207l-0.269,0.145l-0.331,0.124l-0.331,0.125l-0.352,0.124l-0.372,0.103l-0.393,0.083l-0.414,0.103l-0.435,0.083l-0.455,0.062l-0.455,0.062l-0.145,0l-0.352,0.041l-0.538,0.042l-0.517,0.041l-0.559,0.021l-4.634,0l-2.421,5.193Zm11.773,-16.222l-4.159,0l-2.876,6.125l3.145,0l0.828,-0.021l0.31,-0.02l0.062,0l0.331,-0.021l0.269,-0.062l0.249,-0.042l0.227,-0.041l0.186,-0.062l0.248,-0.124l0.249,-0.166l0.248,-0.186l0.228,-0.248l0.207,-0.249l0.207,-0.31l0.207,-0.331l0.186,-0.372l0.724,-1.594l0.166,-0.331l0.124,-0.331l0.083,-0.29l0.062,-0.227l0,-0.435l-0.021,-0.145l-0.041,-0.082l-0.021,-0.042l-0.083,-0.103l-0.124,-0.083l-0.166,-0.062l-0.206,-0.041l-0.249,-0.042l-0.289,-0.02l-0.311,-0.042Z" style="fill:#d62f27;"/><path d="M111.868,28.573l-6.083,0l0.683,-3.538l-8.029,0l-2.897,3.538l-5.918,0l17.547,-21.126l8.815,0l-4.118,21.126Zm-10.139,-7.449l5.546,0l1.655,-8.669l-3.601,4.324l-3.6,4.345Z" style="fill:#d62f27;"/><path d="M122.276,28.78l-1.924,0l-0.662,-0.02l-0.663,-0.042l-0.6,-0.041l-0.558,-0.062l-0.538,-0.104l-0.497,-0.082l-0.434,-0.125l-0.414,-0.103l-0.393,-0.145l-0.352,-0.165l-0.311,-0.166l-0.248,-0.186l-0.207,-0.186l-0.207,-0.228l-0.083,-0.103l-0.062,-0.125l-0.082,-0.124l-0.042,-0.124l-0.082,-0.289l-0.063,-0.332l-0.041,-0.33l0,-0.394l0.041,-0.393l0.063,-0.455l0.082,-0.476l0.124,-0.497l0.145,-0.538l0.187,-0.558l0.207,-0.6l0.227,-0.621l0.269,-0.662l0.31,-0.683l0.332,-0.724l1.013,-2.152l0.352,-0.724l0.331,-0.683l0.373,-0.662l0.331,-0.621l0.352,-0.6l0.351,-0.579l0.352,-0.518l0.352,-0.497l0.352,-0.475l0.351,-0.456l0.373,-0.393l0.331,-0.393l0.372,-0.331l0.352,-0.331l0.373,-0.29l0.372,-0.268l0.352,-0.228l0.393,-0.228l0.414,-0.186l0.434,-0.186l0.476,-0.166l0.476,-0.145l0.517,-0.145l0.518,-0.124l0.579,-0.124l0.579,-0.083l0.601,-0.082l0.641,-0.083l0.662,-0.042l0.662,-0.041l0.704,-0.041l1.324,0l0.538,0.02l0.517,0.042l0.497,0.041l0.476,0.062l0.434,0.062l0.414,0.083l0.373,0.062l0.351,0.104l0.311,0.103l0.31,0.124l0.248,0.124l0.249,0.166l0.227,0.145l0.166,0.186l0.165,0.166l0.124,0.227l0.125,0.248l0.082,0.249l0.063,0.289l0.041,0.331l0,0.331l-0.021,0.352l-0.041,0.373l-0.083,0.393l-0.083,0.435l-0.124,0.455l-0.145,0.475l-0.186,0.497l-0.207,0.518l-0.227,0.537l-0.249,0.559l-0.041,0.062l-5.794,0l0.186,-0.434l0.166,-0.394l0.104,-0.372l0.082,-0.331l0.021,-0.145l0,-0.269l-0.021,-0.124l0,-0.083l-0.041,-0.103l-0.041,-0.083l-0.063,-0.062l-0.062,-0.083l-0.062,-0.041l-0.186,-0.104l-0.207,-0.083l-0.269,-0.062l-0.331,-0.061l-0.373,-0.021l-0.413,-0.042l-0.787,0l-0.289,0.021l-0.269,0.021l-0.29,0.041l-0.269,0.041l-0.249,0.062l-0.227,0.042l-0.228,0.083l-0.227,0.082l-0.228,0.083l-0.207,0.083l-0.186,0.124l-0.186,0.124l-0.165,0.104l-0.166,0.145l-0.145,0.145l-0.207,0.227l-0.207,0.269l-0.227,0.352l-0.249,0.414l-0.269,0.475l-0.289,0.559l-0.311,0.6l-0.331,0.683l-1.014,2.173l-0.31,0.682l-0.269,0.601l-0.228,0.558l-0.186,0.476l-0.124,0.414l-0.104,0.352l-0.062,0.29l0,0.206l0.021,0.145l0.021,0.145l0.062,0.103l0.082,0.125l0.083,0.124l0.104,0.083l0.124,0.082l0.145,0.083l0.186,0.083l0.186,0.062l0.186,0.041l0.228,0.042l0.248,0.02l0.27,0.042l0.268,0.02l0.29,0l0.517,-0.02l0.476,-0.021l0.435,-0.041l0.393,-0.083l0.373,-0.083l0.31,-0.103l0.29,-0.124l0.248,-0.145l0.248,-0.187l0.248,-0.227l0.228,-0.269l0.228,-0.31l0.227,-0.352l0.249,-0.414l0.227,-0.455l0.228,-0.497l5.793,0l-0.269,0.6l-0.268,0.559l-0.29,0.559l-0.269,0.496l-0.311,0.497l-0.29,0.496l-0.289,0.435l-0.31,0.434l-0.311,0.394l-0.31,0.372l-0.331,0.372l-0.311,0.311l-0.33,0.31l-0.332,0.269l-0.351,0.269l-0.352,0.228l-0.311,0.207l-0.372,0.186l-0.373,0.165l-0.372,0.166l-0.414,0.145l-0.414,0.145l-0.455,0.124l-0.455,0.083l-0.476,0.103l-0.517,0.083l-0.497,0.062l-0.559,0.083l-0.538,0.041l-0.579,0.041Z" style="fill:#d62f27;"/><path d="M137.029,28.573l-5.835,0l9.974,-21.126l5.793,0l-4.739,10.081l-0.02,0.017l-0.279,0.621l-4.894,10.407Z" style="fill:#d62f27;"/><path d="M142.222,17.528l11.92,-10.019l6.517,0l-13.284,11.567l3.104,9.58l-5.752,0l-2.711,-9.063l-0.29,-0.993l0.197,-0.434l0.299,-0.638Z" style="fill:#233e81;"/><path d="M159.087,24.911l0.186,0l0.165,0.062l0.166,0.062l0.166,0.063l0.144,0.103l0.145,0.124l0.124,0.104l0.125,0.144l0.206,0.29l0.062,0.165l0.083,0.166l0.042,0.186l0.02,0.186l0.021,0.187l-0.021,0.207l-0.02,0.165l-0.042,0.207l-0.083,0.166l-0.062,0.165l-0.103,0.145l-0.103,0.145l-0.125,0.145l-0.124,0.124l-0.145,0.082l-0.144,0.104l-0.166,0.083l-0.166,0.062l-0.165,0.041l-0.186,0.021l-0.393,0l-0.166,-0.021l-0.186,-0.041l-0.165,-0.062l-0.166,-0.083l-0.166,-0.104l-0.145,-0.082l-0.124,-0.124l-0.124,-0.145l-0.103,-0.145l-0.083,-0.145l-0.083,-0.165l-0.062,-0.166l-0.062,-0.207l-0.021,-0.165l0,-0.394l0.021,-0.186l0.062,-0.186l0.062,-0.166l0.083,-0.165l0.083,-0.145l0.103,-0.145l0.124,-0.144l0.124,-0.104l0.145,-0.124l0.166,-0.103l0.166,-0.063l0.165,-0.062l0.186,-0.062l0.166,0l0.186,-0.021l0.02,0l0.187,0.021Zm-0.042,0.269l-0.31,0l-0.145,0.021l-0.145,0.041l-0.124,0.062l-0.144,0.063l-0.125,0.082l-0.103,0.104l-0.125,0.082l-0.082,0.124l-0.104,0.125l-0.062,0.124l-0.062,0.145l-0.042,0.144l-0.041,0.145l-0.02,0.145l-0.021,0.166l0.021,0.165l0.02,0.166l0.041,0.145l0.042,0.145l0.062,0.144l0.062,0.125l0.104,0.124l0.082,0.103l0.125,0.103l0.103,0.104l0.125,0.083l0.289,0.124l0.124,0.02l0.29,0.042l0.02,0l0.145,-0.021l0.166,-0.021l0.145,-0.02l0.124,-0.062l0.124,-0.062l0.124,-0.083l0.104,-0.083l0.124,-0.124l0.103,-0.103l0.083,-0.104l0.062,-0.145l0.062,-0.124l0.042,-0.145l0.062,-0.165l0,-0.642l-0.062,-0.145l-0.042,-0.144l-0.062,-0.145l-0.062,-0.124l-0.083,-0.125l-0.103,-0.124l-0.124,-0.082l-0.104,-0.104l-0.124,-0.082l-0.124,-0.063l-0.124,-0.062l-0.145,-0.041l-0.166,-0.021Zm-0.517,2.669l-0.331,0l0,-2.09l0.269,-0.02l0.311,-0.021l0.227,0l0.186,0.041l0.145,0.063l0.103,0.062l0.083,0.062l0.062,0.103l0.021,0.104l0.021,0.144l0,0.104l-0.021,0.083l-0.041,0.082l-0.042,0.062l-0.062,0.063l-0.083,0.041l-0.061,0.041l-0.083,0.021l0,0.041l0.061,0l0.063,0.042l0.062,0.02l0.041,0.083l0.021,0.063l0.041,0.082l0.021,0.104l0.021,0.103l0.041,0.207l0.041,0.145l0.042,0.103l0.02,0.062l-0.351,0l-0.041,-0.082l-0.022,-0.104l-0.061,-0.352l-0.021,-0.082l-0.042,-0.083l-0.041,-0.062l-0.041,-0.041l-0.083,-0.063l-0.062,0l-0.062,-0.02l-0.021,0l-0.082,-0.021l-0.249,0l0,0.91Zm0.372,-1.883l-0.248,0l-0.124,0.021l0,0.704l0.352,0l0.103,-0.021l0.083,-0.021l0.083,-0.041l0.062,-0.042l0.041,-0.061l0.021,-0.083l0.02,-0.083l0,-0.062l-0.041,-0.083l-0.02,-0.062l-0.063,-0.062l-0.062,-0.042l-0.103,-0.02l-0.104,-0.042Z" style="fill:#233e81;"/></g></svg>