<?xml version="1.0" encoding="UTF-8" standalone="no"?><!DOCTYPE svg PUBLIC "-//W3C//DTD SVG 1.1//EN" "http://www.w3.org/Graphics/SVG/1.1/DTD/svg11.dtd"><svg width="100%" height="100%" viewBox="0 0 176 36" version="1.1" xmlns="http://www.w3.org/2000/svg" xmlns:xlink="http://www.w3.org/1999/xlink" xml:space="preserve" xmlns:serif="http://www.serif.com/" style="fill-rule:evenodd;clip-rule:evenodd;stroke-linejoin:round;stroke-miterlimit:1.41421;"><rect id="Estafeta-color" serif:id="Estafeta color" x="0" y="0" width="176" height="36" style="fill:none;"/><g><path d="M16.086,14.675c0.411,-1.699 0.889,-3.68 3.735,-3.68l11.453,0c4.201,0 3.643,2.308 3.311,3.68l-1.51,6.252l-12.138,0l-0.458,1.896c-0.301,1.248 0.538,2.011 2.096,2.011l9.555,0l-1.063,4.396l-14.198,0c-4.299,0 -3.925,-1.55 -3.4,-3.721l2.617,-10.834Zm5.684,2.806l5.678,0l0.387,-1.521c0.12,-0.466 0.29,-1.201 -0.803,-1.201l-3.451,0c-0.899,0 -1.261,0.559 -1.409,1.145l-0.402,1.577Zm30.322,-6.487l-11.097,0c-3.407,0 -3.897,1.958 -4.317,3.764c-0.419,1.806 0.223,3.464 2.428,5.041c2.205,1.576 4.665,2.596 4.25,4.011c-0.175,0.595 -0.915,1.023 -2.401,1.023l-6.711,0l-1.063,4.397l11.04,0c2.156,0 4.825,0.039 6.1,-1.997c1.274,-2.035 0.914,-3.665 -0.236,-5.352c-1.152,-1.685 -3.4,-2.769 -5.077,-4.401c-0.988,-0.963 -0.935,-2.722 0.669,-2.722l5.505,0l0.91,-3.764Zm2.075,0l3.565,0l1.138,-4.708l6.491,0l-1.137,4.708l3.323,0l-0.909,3.764l-3.322,0l-2.061,8.527c-0.374,1.548 0.107,2.191 2.094,2.191l-0.907,3.754l-4.77,0c-4.346,0 -3.627,-2.973 -3.283,-4.397l2.434,-10.075l-3.565,0l0.909,-3.764Zm14.548,3.764l0.91,-3.764l13.849,0c3.374,0 2.958,2.514 2.656,3.764l-2.59,10.718c-0.679,2.812 0.189,3.024 0.739,3.754l-6.181,0c-0.698,0 -1.599,-0.512 -1.916,-0.849c-1.458,0.444 -1.556,1.384 -4.593,1.331c-3.037,-0.054 -6.428,-2.767 -6.144,-6.401c0.283,-3.633 3.458,-5.832 6.327,-5.832l7.044,0l0.401,-1.66c0.257,-1.063 -0.576,-1.063 -1.081,-1.063l-9.421,0l0,0.002Zm9.536,5.776l-4.259,0c-1.739,0 -4.141,2.094 -2.129,4.171c2.013,2.076 5.661,-1.053 6.388,-4.171Zm24.128,-14.248l-6.09,0c-1.567,0 -3.566,0 -4.37,3.327l-0.334,1.381l-2.723,0l-0.91,3.764l2.725,0l-3.159,13.076c-0.136,0.563 -0.346,0.931 -1.036,1.396l4.95,0c1.67,0 2.569,-1.547 3.103,-3.753l2.588,-10.718l3.211,0l0.91,-3.764l-3.211,0l0.193,-0.797c0.14,-0.577 0.635,-0.999 1.506,-0.988l1.936,0.025l0.711,-2.949Zm0.215,8.389c0.41,-1.699 0.89,-3.68 3.734,-3.68l11.453,0c4.2,0 3.642,2.308 3.312,3.68l-1.51,6.252l-12.138,0l-0.458,1.896c-0.301,1.248 0.538,2.011 2.096,2.011l9.557,0l-1.063,4.396l-14.199,0c-4.3,0 -3.925,-1.55 -3.4,-3.721l2.616,-10.834Zm5.684,2.806l5.677,0l0.387,-1.521c0.121,-0.466 0.29,-1.201 -0.803,-1.201l-3.45,0c-0.9,0 -1.26,0.559 -1.41,1.145l-0.401,1.577Zm15.616,-6.487l3.565,0l1.138,-4.708l6.493,0l-1.138,4.708l3.321,0l-0.908,3.764l-3.323,0l-2.059,8.527c-0.374,1.548 0.106,2.191 2.094,2.191l-0.908,3.754l-4.769,0c-4.346,0 -3.629,-2.973 -3.284,-4.397l2.435,-10.075l-3.566,0l0.909,-3.764Zm14.547,3.764l0.909,-3.764l13.849,0c3.375,0 2.958,2.514 2.656,3.764l-2.59,10.718c-0.68,2.812 0.189,3.024 0.739,3.754l-6.18,0c-0.698,0 -1.6,-0.512 -1.918,-0.849c-1.457,0.444 -1.555,1.384 -4.593,1.331c-3.036,-0.053 -6.428,-2.767 -6.143,-6.401c0.284,-3.633 3.458,-5.832 6.326,-5.832l7.044,0l0.401,-1.66c0.257,-1.063 -0.577,-1.063 -1.081,-1.063l-9.419,0l0,0.002Zm9.534,5.776l-4.258,0c-1.738,0 -4.14,2.094 -2.127,4.171c2.011,2.076 5.659,-1.053 6.385,-4.171Z" style="fill:#cc2229;"/><path d="M160.174,10.409c0.735,0 1.402,0.3 1.885,0.783c0.5,0.499 0.782,1.177 0.782,1.884c0,0.707 -0.282,1.385 -0.782,1.885c-0.499,0.5 -1.177,0.781 -1.884,0.781c-0.707,0 -1.385,-0.281 -1.884,-0.781l-0.002,-0.001c-0.5,-0.499 -0.781,-1.178 -0.781,-1.884c0,-0.707 0.281,-1.385 0.781,-1.884c0.499,-0.501 1.178,-0.783 1.885,-0.783Z" style="fill:#cc2229;fill-rule:nonzero;"/><path d="M160.804,12.914l0.545,0c0.091,0.003 0.183,-0.009 0.27,-0.036c0.065,-0.024 0.115,-0.062 0.149,-0.115c0.033,-0.053 0.05,-0.11 0.05,-0.171c0.003,-0.085 -0.033,-0.167 -0.098,-0.223c-0.065,-0.058 -0.168,-0.088 -0.311,-0.088l-0.604,0l0,0.633l-0.001,0Zm-0.253,1.067l0,-1.91l0.847,0c0.171,0 0.3,0.018 0.389,0.052c0.089,0.034 0.159,0.094 0.211,0.181c0.053,0.087 0.081,0.186 0.081,0.288c0,0.135 -0.044,0.25 -0.132,0.342c-0.087,0.093 -0.223,0.153 -0.406,0.178c0.055,0.024 0.105,0.056 0.152,0.094c0.075,0.068 0.144,0.153 0.211,0.254l0.331,0.519l-0.317,0l-0.253,-0.397c-0.057,-0.09 -0.118,-0.178 -0.184,-0.263c-0.035,-0.049 -0.078,-0.092 -0.127,-0.127c-0.036,-0.024 -0.074,-0.041 -0.115,-0.052c-0.047,-0.007 -0.094,-0.01 -0.142,-0.009l-0.293,0l0,0.848l-0.253,0l0,0.002Zm-2.234,0l0,-1.91l0.381,0l0.451,1.352c0.043,0.126 0.073,0.221 0.091,0.283c0.021,-0.069 0.056,-0.171 0.103,-0.306l0.456,-1.329l0.34,0l0,1.91l-0.244,0l0,-1.598l-0.554,1.598l-0.228,0l-0.552,-1.626l0,1.626l-0.244,0Z" style="fill:#fff;fill-rule:nonzero;"/></g></svg>