<?xml version="1.0" encoding="UTF-8" standalone="no"?><!DOCTYPE svg PUBLIC "-//W3C//DTD SVG 1.1//EN" "http://www.w3.org/Graphics/SVG/1.1/DTD/svg11.dtd"><svg width="100%" height="100%" viewBox="0 0 176 36" version="1.1" xmlns="http://www.w3.org/2000/svg" xmlns:xlink="http://www.w3.org/1999/xlink" xml:space="preserve" xmlns:serif="http://www.serif.com/" style="fill-rule:evenodd;clip-rule:evenodd;stroke-linejoin:round;stroke-miterlimit:1.41421;"><rect id="UPS-color" serif:id="UPS color" x="0" y="0" width="176" height="36" style="fill:none;"/><g><path d="M88,34.196c0.29,-0.145 7.825,-3.405 10.216,-5.361c2.463,-2.029 3.767,-4.927 3.767,-8.405l0,-16.301l-0.217,-0.073c-6.014,-3.26 -13.476,-3.043 -13.838,-3.043c-0.29,0 -7.753,-0.217 -13.766,3.043l-0.145,0.073l0,16.374c0,3.477 1.304,6.375 3.767,8.404c2.391,1.956 9.926,5.216 10.216,5.289" style="fill:#341b14;fill-rule:nonzero;"/><path d="M88,34.558c0,0 -7.97,-3.478 -10.433,-5.434c-2.608,-2.173 -3.84,-5.144 -3.84,-8.549l0,-16.953c6.303,-3.406 14.273,-3.116 14.273,-3.116c0,0 7.97,-0.29 14.273,3.116l0,16.881c0,3.405 -1.232,6.375 -3.84,8.549c-2.463,2.028 -10.433,5.506 -10.433,5.506m-13.114,-13.983c0,3.188 1.16,5.796 3.406,7.607c2.028,1.667 8.042,4.348 9.708,5.072c1.666,-0.724 7.752,-3.478 9.708,-5.072c2.246,-1.811 3.406,-4.492 3.406,-7.607l0,-16.664c-8.405,-0.797 -18.403,-0.362 -26.228,6.883l0,9.781Z" style="fill:#ffb406;fill-rule:nonzero;"/><path d="M96.042,18.184c1.087,0.652 1.522,1.087 1.594,1.884c0,0.869 -0.58,1.376 -1.521,1.376c-0.797,0 -1.739,-0.434 -2.391,-1.014l0,2.319c0.797,0.434 1.738,0.797 2.753,0.797c2.463,0 3.622,-1.739 3.622,-3.333c0.073,-1.449 -0.362,-2.608 -2.463,-3.84c-0.942,-0.58 -1.666,-0.942 -1.666,-1.811c0,-0.87 0.797,-1.232 1.449,-1.232c0.869,0 1.738,0.507 2.246,1.014l0,-2.173c-0.435,-0.363 -1.377,-0.87 -2.754,-0.797c-1.666,0.072 -3.405,1.231 -3.405,3.26c0.073,1.377 0.507,2.391 2.536,3.55m-8.549,5.217c0.217,0.072 0.579,0.145 1.159,0.145c2.826,0 4.42,-2.536 4.42,-6.159c0,-3.695 -1.667,-5.941 -4.637,-5.941c-1.377,0 -2.464,0.29 -3.405,0.87l0,16.374l2.463,0l0,-5.289Zm0,-9.854c0.217,-0.072 0.579,-0.217 0.869,-0.217c1.449,0 2.029,1.159 2.029,3.985c0,2.753 -0.725,4.057 -2.174,4.057c-0.362,0 -0.652,-0.072 -0.797,-0.145l0,-7.68l0.073,0Zm-7.608,9.999c1.522,0 2.826,-0.363 3.768,-1.015l0,-10.94l-2.536,0l0,9.491c-0.29,0.218 -0.652,0.29 -1.159,0.29c-1.159,0 -1.304,-1.087 -1.304,-1.739l0,-8.042l-2.536,0l0,7.897c0,2.681 1.304,4.058 3.767,4.058m16.882,9.78l0,1.667l0.289,0l0,-0.652l0.073,0l0.435,0.652l0.362,0c0,0 -0.435,-0.652 -0.507,-0.725c0.217,-0.072 0.362,-0.217 0.362,-0.434c0,-0.218 -0.145,-0.508 -0.58,-0.508l-0.434,0Zm0.434,0.218c0.218,0 0.29,0.145 0.29,0.217c0,0.145 -0.072,0.29 -0.362,0.29l-0.073,0l0,-0.507l0.145,0Z" style="fill:#ffb406;fill-rule:nonzero;"/><path d="M98.361,34.123c0,0.58 -0.508,1.087 -1.087,1.087c-0.58,0 -1.087,-0.507 -1.087,-1.087c0,-0.579 0.507,-1.086 1.087,-1.086c0.652,0 1.087,0.507 1.087,1.086m-1.087,-1.376c-0.725,0 -1.377,0.579 -1.377,1.376c0,0.725 0.58,1.377 1.377,1.377c0.724,0 1.376,-0.58 1.376,-1.377c0,-0.724 -0.652,-1.376 -1.376,-1.376" style="fill:#ffb406;fill-rule:nonzero;"/></g></svg>